<?xml version="1.0" encoding="utf-8"?>
<!-- Generator: Adobe Illustrator 21.0.2, SVG Export Plug-In . SVG Version: 6.00 Build 0)  -->
<svg version="1.1" id="Layer_1" xmlns="http://www.w3.org/2000/svg" xmlns:xlink="http://www.w3.org/1999/xlink" x="0px" y="0px"
	 viewBox="0 0 240 240" style="enable-background:new 0 0 240 240;" xml:space="preserve">
<style type="text/css">
	.st0{fill:#FFFFFF;stroke:#000000;stroke-miterlimit:10;}
	.st1{fill:none;stroke:#4C9CD7;stroke-width:5;stroke-linecap:round;stroke-linejoin:round;stroke-miterlimit:10;}
	.st2{fill:#004378;}
</style>
<path class="st0" d="M57.3,107.5"/>
<polyline class="st1" points="45.5,107.5 23.1,107.5 119.9,39.1 216.7,107.5 186.9,107.5 "/>
<path class="st0" d="M69.2,107.5"/>
<g>
	<path class="st2" d="M71.6,90.6c3.4,0,6.2,0.6,8.3,1.9c2.1,1.2,3.2,2.8,3.2,4.7c0,1.6-0.3,2.7-0.9,3.3c-0.6,0.5-1.2,0.8-1.9,0.8
		c-0.7,0-1.4-0.3-2-0.8c-0.6-0.5-1.1-1.1-1.7-1.8c-0.6-0.7-1.2-1.2-1.9-1.8c-0.7-0.5-1.5-0.8-2.4-0.8c-1.3,0-2.2,0.4-2.6,1.1
		c-0.5,0.7-0.7,2.1-0.7,4.1c0,0.9,0.1,1.9,0.4,3c0.3,1.1,0.7,2.4,1.4,3.9c0.7,1.5,1.6,3.2,2.8,5.1c1.2,2,2.7,4.2,4.5,6.9
		c1.6,2.3,2.8,4.5,3.7,6.5c0.9,2,1.5,3.8,1.8,5.4c0.4,1.6,0.6,3.1,0.6,4.3c0.1,1.2,0.1,2.2,0.1,2.9c0,0.8-0.1,1.8-0.4,3.1
		c-0.3,1.2-0.8,2.5-1.6,3.7c-0.8,1.2-2,2.3-3.5,3.2c-1.5,0.9-3.5,1.3-6,1.3c-2.5,0-4.5-0.4-6.1-1.2c-1.6-0.8-2.9-1.7-3.8-2.7
		c-0.9-1-1.6-2-2-3c-0.4-1-0.6-1.7-0.6-2.2c0-0.8,0.2-1.6,0.6-2.3c0.4-0.7,1.2-1.1,2.5-1.1c0.7,0,1.2,0.1,1.5,0.3
		c0.3,0.2,0.6,0.5,0.9,0.9c0.3,0.4,0.5,0.8,0.8,1.3c0.3,0.5,0.7,1,1.2,1.5c1.1,1.1,2,1.9,2.6,2.4c0.7,0.5,1.4,0.7,2.3,0.7
		c0.5,0,1-0.1,1.7-0.2c0.7-0.1,1.3-0.4,1.9-0.9c0.6-0.4,1.1-1,1.5-1.9c0.4-0.8,0.6-1.9,0.6-3.2c0-1.2-0.1-2.4-0.4-3.5
		c-0.3-1.1-0.7-2.3-1.4-3.7c-0.7-1.4-1.5-3-2.6-4.8c-1.1-1.8-2.5-4.1-4.2-6.8c-1.5-2.4-2.8-4.6-3.8-6.3s-1.8-3.4-2.3-4.9
		c-0.6-1.4-1-2.8-1.2-4c-0.2-1.2-0.3-2.6-0.3-3.9c0-1.6,0.3-3,0.8-4.3c0.5-1.3,1.2-2.4,2.1-3.3c0.9-0.9,1.9-1.6,3-2.1
		C69.5,90.9,70.6,90.6,71.6,90.6z"/>
	<path class="st2" d="M91,147.5c0-0.2,0.1-1.1,0.3-2.6c0.2-1.5,0.5-3.4,0.8-5.7c0.3-2.3,0.7-5,1.1-7.9c0.4-2.9,0.9-6,1.4-9.1
		c0.5-3.1,0.9-6.2,1.4-9.3c0.5-3.1,0.9-5.9,1.2-8.5c0.5-2.8,0.8-5.2,1.1-7.1c0.3-1.9,0.5-3.1,0.5-3.5c0.2-1.4,0.7-2.3,1.7-2.7
		c0.9-0.4,1.8-0.6,2.6-0.5c0.8,0.1,1.6,0.3,2.3,0.6c0.7,0.3,1.2,1.1,1.5,2.1c0.1,0.4,0.4,1.7,0.9,3.9c0.5,2.2,1.1,5,1.8,8.3
		c0.7,3.3,1.5,6.9,2.3,10.8s1.6,7.8,2.4,11.5c0.8,3.8,1.4,7.2,2,10.4c0.6,3.2,1,5.7,1.2,7.5c0,0.9-0.2,1.6-0.6,2.2
		c-0.4,0.5-0.8,0.9-1.3,1.1c-0.1,0-0.1,0-0.2,0c-0.1,0-0.2,0-0.2,0c-0.3,0.1-0.6,0.2-1.1,0.1c-0.4,0-0.9-0.2-1.3-0.4
		c-0.4-0.2-0.8-0.6-1.1-1.1c-0.3-0.5-0.6-1.2-0.7-2c-0.2-1-0.4-2.1-0.6-3.5c-0.2-1.4-0.4-2.7-0.6-4c-0.2-1.5-0.5-2.9-0.8-4.4
		c-0.3,0-0.8,0-1.3-0.1c-0.5,0-1,0-1.5,0c-0.6,0-1.2,0-1.9,0c-0.9,0-1.9,0-2.9,0.1c-1,0.1-2,0.2-2.9,0.4c-0.2,1.3-0.4,2.7-0.6,4.1
		c-0.2,1.4-0.4,2.8-0.5,4.1c-0.1,1.3-0.3,2.5-0.3,3.5c-0.1,1.1-0.2,1.8-0.2,2.3c-0.1,0.9-0.4,1.6-0.9,2c-0.5,0.5-1.3,0.7-2.4,0.7
		c-1.1,0-1.8-0.3-2.2-0.9C91.1,149.3,91,148.5,91,147.5z M100.2,128.2c0.3,0.1,0.6,0.1,0.9,0.1c0.3,0.1,0.6,0.1,1,0.1
		c0.4,0,0.8,0,1.4,0c0.5,0,1.1,0,1.9,0c0.8,0,1.5-0.1,2.1-0.1c-0.1-1.9-0.4-4.2-0.7-6.9c-0.4-2.7-0.8-5.5-1.2-8.6
		c-0.3-1.8-0.5-3.4-0.8-5.1c-0.2-1.6-0.4-3-0.5-4c-0.1-0.3-0.2-0.5-0.5-0.6c-0.3-0.1-0.5,0.1-0.5,0.6c-0.6,3.7-1.1,7.1-1.5,10.2
		c-0.2,1.4-0.4,2.7-0.6,4.1c-0.2,1.4-0.4,2.7-0.6,3.9c-0.2,1.2-0.3,2.4-0.5,3.4c-0.1,1-0.2,1.8-0.3,2.4L100.2,128.2z"/>
	<path class="st2" d="M126.6,91.5c0.9-0.1,1.9-0.1,3.2-0.2c1.3-0.1,2.7-0.1,4.1-0.2c1.4-0.1,2.8-0.1,4.3-0.1c1.4,0,2.7,0,3.7,0.1
		c0.8,0.1,1.5,0.4,1.9,1c0.4,0.6,0.6,1.4,0.5,2.3c-0.1,1-0.4,1.7-1,2c-0.5,0.3-1.2,0.5-1.9,0.6c-0.5,0.1-1.2,0.1-2.3,0.1
		c-1.1,0-2.3,0.1-3.4,0.1c-1.4,0.1-2.9,0.1-4.5,0.2l0.3,20.3c1.4-0.1,2.7-0.1,3.9-0.2c1.1-0.1,2.2-0.1,3.3-0.1s2,0,2.7,0.1
		c1,0.1,1.5,0.4,1.7,0.9c0.2,0.5,0.3,1,0.3,1.5c0,0.6-0.1,1.1-0.3,1.7c-0.2,0.6-0.8,1-1.8,1.1c-0.6,0.1-1.5,0.2-2.6,0.2
		c-1.1,0-2.2,0-3.2,0.1c-1.2,0.1-2.6,0.1-4,0.1c0.1,2,0.1,3.9,0.2,5.4c0.1,1.6,0.1,3.3,0.1,5.3c0,1.9,0,3.8,0,5.7c0,1.8,0,3.5,0,5
		c0,1.5-0.1,2.6-0.1,3.3c-0.1,1.2-0.5,2-1,2.4c-0.6,0.3-1.3,0.5-2.2,0.5c-0.9,0-1.5-0.2-2-0.6c-0.5-0.4-0.7-1.2-0.8-2.3
		c0-0.3,0-1.3-0.1-3c-0.1-1.6-0.1-3.7-0.2-6.2s-0.2-5.2-0.3-8.3c-0.1-3-0.2-6.1-0.3-9.3c-0.1-3.2-0.2-6.3-0.3-9.4
		c-0.1-3.1-0.2-5.8-0.2-8.3c-0.1-2.5-0.1-4.6-0.1-6.2c0-1.6,0-2.7,0-3.1c0-0.6,0.1-1.1,0.3-1.4c0.2-0.3,0.5-0.6,0.8-0.8
		c0.3-0.2,0.5-0.3,0.8-0.3C126.4,91.5,126.6,91.5,126.6,91.5z"/>
	<path class="st2" d="M152.6,91.5c1.9-0.2,4-0.3,6.4-0.5c2.4-0.2,4.6-0.3,6.6-0.3c2.2,0,3.8,0.1,4.8,0.4c1.1,0.3,1.8,0.8,2,1.4
		s0.3,1.1,0.2,1.6c-0.1,0.5-0.3,1-0.7,1.7c-0.3,0.7-1.2,1.2-2.5,1.4c-0.7,0.2-1.7,0.3-3.1,0.4c-1.4,0.1-2.8,0.2-4.1,0.3
		c-1.6,0.1-3.4,0.2-5.2,0.3l0.2,19.4c3,0,5.5,0,7.6,0c2.1,0,3.3,0.1,3.7,0.2c0.2,0.1,0.5,0.2,0.9,0.4c0.4,0.1,0.8,0.3,1.1,0.6
		c0.3,0.3,0.6,0.6,0.8,1c0.2,0.4,0.3,1,0.2,1.7c-0.1,0.6-0.3,1.1-0.6,1.5c-0.3,0.4-0.7,0.7-1.1,0.9c-0.4,0.2-0.8,0.4-1.2,0.5
		c-0.4,0.1-0.6,0.1-0.7,0.1h-5.3c-1.3,0-2.5,0-3.6,0.1c-1.1,0.1-1.6,0.2-1.6,0.3v9.6c0,2.8,0,6,0.1,9.5c0.9-0.1,2-0.1,3.3-0.2
		c1.3-0.1,2.6-0.1,3.9-0.1c1.3,0,2.6,0,3.9,0s2.3,0,3.2,0.1c0.9,0.1,1.5,0.4,1.9,1c0.4,0.6,0.5,1.4,0.4,2.4
		c-0.1,0.9-0.5,1.5-1.1,1.8c-0.6,0.3-1.5,0.5-2.7,0.6c-0.7,0.1-1.8,0.1-3.3,0.1c-1.5,0-3.1,0.1-4.8,0.1c-1.7,0-3.3,0.1-4.7,0.1
		c-1.4,0-2.4,0-2.9,0c-0.8,0-1.4-0.2-2-0.6c-0.5-0.4-0.8-1.1-0.9-2.3c0-0.3,0-1.3-0.1-3c-0.1-1.6-0.1-3.7-0.2-6.2s-0.1-5.2-0.2-8.3
		c-0.1-3-0.2-6.1-0.2-9.3c-0.1-3.1-0.1-6.2-0.2-9.3c-0.1-3-0.1-5.8-0.2-8.3s-0.1-4.5-0.1-6.1c0-1.6,0-2.6,0-2.9
		c0.1-1.1,0.3-1.8,0.7-2.1C151.7,91.8,152.1,91.6,152.6,91.5z"/>
</g>
<g>
	<path class="st2" d="M84.6,206.4c0.1-1.4,0.3-3,0.5-4.8c0.2-1.8,0.4-3.6,0.6-5.4c0.2-1.9,0.5-3.7,0.7-5.5c0.2-1.8,0.5-3.4,0.7-4.9
		s0.4-2.7,0.5-3.7c0.1-1,0.2-1.6,0.3-1.9c0.1-1.1,0.6-1.6,1.3-1.6c0.7,0,1.2,0.2,1.4,0.6c0.2,0.4,0.3,1,0.3,1.6c0,0.2,0,0.7-0.1,1.7
		c-0.1,1-0.2,2.2-0.4,3.6c-0.1,1.5-0.3,3.1-0.5,5c-0.2,1.9-0.4,3.7-0.6,5.7c-0.2,1.9-0.4,3.8-0.6,5.7c-0.2,1.9-0.4,3.6-0.6,5.1
		c-0.2,1.5-0.4,2.8-0.5,3.8s-0.3,1.7-0.4,1.9c-0.3,1-0.6,1.6-1,2c-0.4,0.4-1,0.6-1.8,0.6c-0.9,0-1.6-0.2-2-0.7
		c-0.4-0.5-0.7-1.3-0.8-2.5c-0.1-0.4-0.2-1.3-0.4-2.6c-0.2-1.3-0.5-2.9-0.8-4.6c-0.3-1.7-0.6-3.6-0.9-5.5c-0.3-1.9-0.6-3.7-0.8-5.3
		c-0.2-1.6-0.5-3.5-0.8-5.6c-0.3-0.2-0.5-0.2-0.6,0c-0.2,1.4-0.5,3-0.7,4.8c-0.3,1.7-0.5,3.5-0.8,5.3c-0.3,1.8-0.5,3.6-0.8,5.3
		c-0.3,1.7-0.5,3.3-0.8,4.6c-0.2,1.4-0.4,2.5-0.6,3.5c-0.2,0.9-0.3,1.5-0.4,1.8c-0.2,0.7-0.4,1.2-0.7,1.4c-0.3,0.2-0.6,0.3-1.1,0.3
		h-0.2c-0.3,0-0.5,0-0.7,0c-0.2,0-0.4-0.1-0.5-0.2c-0.2-0.1-0.3-0.4-0.5-0.7c-0.1-0.3-0.3-0.8-0.4-1.4c-0.1-0.4-0.2-1.2-0.4-2.3
		c-0.2-1.1-0.5-2.5-0.8-4.1c-0.3-1.6-0.6-3.4-1-5.3c-0.4-1.9-0.7-3.9-1.1-5.9c-0.4-2-0.7-3.9-1.1-5.8c-0.3-1.9-0.6-3.5-0.9-5
		c-0.3-1.5-0.5-2.7-0.6-3.6c-0.2-1-0.2-1.5-0.2-1.6c0-0.4,0.1-0.8,0.2-1c0.1-0.2,0.3-0.4,0.5-0.5c0.2-0.1,0.4-0.2,0.6-0.2
		c0.2,0,0.4,0,0.6,0c0.4,0,0.7,0.2,1.1,0.5c0.4,0.3,0.6,1.1,0.9,2.3c0.1,0.4,0.2,1,0.3,1.9c0.1,0.9,0.3,1.9,0.5,3
		c0.2,1.1,0.4,2.3,0.6,3.6c0.2,1.3,0.5,2.6,0.7,3.9c0.5,3,1.2,6.3,1.8,9.9c0.2,0.2,0.4,0.2,0.6,0c0.2-1.1,0.5-2.4,0.7-3.9
		c0.3-1.5,0.5-3.1,0.8-4.7c0.3-1.6,0.5-3.2,0.8-4.9c0.3-1.6,0.5-3.2,0.8-4.6c0.2-1.4,0.4-2.6,0.6-3.7c0.1-1,0.3-1.8,0.3-2.2
		c0.2-0.7,0.5-1.1,0.8-1.2c0.4-0.1,0.8-0.2,1.2-0.2c0.1,0,0.3,0,0.5,0.1c0.2,0,0.4,0.2,0.6,0.4c0.2,0.2,0.4,0.5,0.6,0.9
		c0.2,0.4,0.3,0.9,0.5,1.5c0.1,0.5,0.3,1.5,0.5,3c0.3,1.5,0.5,3.2,0.9,5c0.3,1.9,0.7,3.9,1,5.9c0.3,2.1,0.7,3.9,0.9,5.6
		c0.3,1.7,0.6,3.7,1,5.9C84.2,206.6,84.5,206.6,84.6,206.4z"/>
	<path class="st2" d="M109.8,196.3l-0.3-16c-0.1-0.4,0-0.8,0.1-1.2c0.1-0.3,0.2-0.6,0.5-0.8c0.3-0.3,0.7-0.4,1.2-0.4
		s0.9,0.1,1.2,0.2c0.3,0.1,0.5,0.3,0.6,0.6c0.1,0.2,0.2,0.5,0.2,0.9c0,0.3,0,0.7,0,1.1c0,0.2,0,0.8,0.1,1.9c0,1,0.1,2.3,0.1,3.8
		c0,1.5,0.1,3.2,0.2,5.1s0.1,3.8,0.2,5.8c0.1,2,0.1,3.9,0.1,5.8c0,1.9,0.1,3.6,0.1,5.1c0,1.5,0.1,2.8,0.1,3.8c0,1,0,1.6,0,1.8
		c-0.1,0.7-0.2,1.2-0.5,1.6c-0.3,0.4-0.7,0.6-1.4,0.6c-0.7,0-1.2-0.2-1.5-0.6c-0.3-0.5-0.5-1.1-0.5-1.9c0-0.2,0-0.6,0-1.1
		c0-0.5,0-1.1,0-1.7c0-0.6,0-1.3-0.1-2.1c0-0.8,0-1.5,0-2.3c0-1.8-0.1-3.7-0.1-5.8c-0.6,0-1.3,0-2.1,0c-0.8,0-1.6,0-2.5,0
		c-0.9,0-1.7,0.1-2.5,0.1c-0.8,0.1-1.5,0.1-2.1,0.2c0,1,0,2.1,0,3.2c0,1.2,0,2.4,0.1,3.6c0,1.2,0,2.4,0.1,3.5c0,1.1,0,2.1,0,3
		c0,0.7-0.1,1.2-0.3,1.6s-0.6,0.6-1.3,0.6c-0.8,0-1.3-0.1-1.6-0.4c-0.3-0.3-0.5-0.8-0.6-1.8c0-0.3-0.1-0.9-0.1-1.9
		c0-1-0.1-2.3-0.1-3.9c0-1.5-0.1-3.2-0.1-5.2c-0.1-1.9-0.1-3.8-0.1-5.8c0-2-0.1-3.9-0.1-5.8c0-1.9-0.1-3.6-0.1-5.2s0-2.9,0-3.9
		c0-1.1,0-1.7,0-2c0-0.5,0.1-0.9,0.2-1.2c0.1-0.3,0.2-0.5,0.4-0.6c0.2-0.1,0.3-0.2,0.5-0.2c0.2,0,0.4,0,0.6,0c0.2,0,0.4,0,0.6,0.1
		c0.3,0,0.5,0.1,0.8,0.3c0.3,0.2,0.5,0.5,0.6,0.9c0.2,0.4,0.3,1,0.3,1.8c0,0.7,0.1,1.5,0.1,2.3s0.1,1.8,0.1,2.9
		c0,1.2,0.1,2.5,0.1,4.1c0,1.6,0.1,3.4,0.2,5.6L109.8,196.3z"/>
	<path class="st2" d="M118.8,214.3c0-0.1,0.1-0.7,0.2-1.6c0.1-1,0.3-2.2,0.5-3.6c0.2-1.5,0.5-3.1,0.7-5c0.3-1.9,0.6-3.8,0.9-5.8
		c0.3-2,0.6-4,0.9-5.9c0.3-2,0.5-3.8,0.8-5.4c0.3-1.8,0.5-3.3,0.7-4.5c0.2-1.2,0.3-2,0.3-2.2c0.1-0.9,0.5-1.5,1.1-1.7
		c0.6-0.3,1.1-0.4,1.6-0.3c0.5,0,1,0.2,1.5,0.4c0.5,0.2,0.8,0.7,1,1.4c0.1,0.3,0.3,1.1,0.6,2.5c0.3,1.4,0.7,3.2,1.2,5.2
		c0.4,2.1,0.9,4.4,1.5,6.9s1,4.9,1.5,7.3c0.5,2.4,0.9,4.6,1.3,6.6s0.6,3.6,0.8,4.8c0,0.6-0.1,1-0.4,1.4c-0.3,0.3-0.5,0.6-0.8,0.7
		c0,0-0.1,0-0.1,0c-0.1,0-0.1,0-0.1,0c-0.2,0.1-0.4,0.1-0.7,0.1c-0.3,0-0.5-0.1-0.8-0.2c-0.3-0.1-0.5-0.4-0.7-0.7
		c-0.2-0.3-0.4-0.8-0.4-1.3c-0.1-0.6-0.2-1.4-0.4-2.2c-0.1-0.9-0.3-1.7-0.4-2.5c-0.1-0.9-0.3-1.9-0.5-2.8c-0.2,0-0.5,0-0.8-0.1
		c-0.3,0-0.6,0-1,0c-0.4,0-0.8,0-1.2,0c-0.6,0-1.2,0-1.8,0.1c-0.6,0-1.3,0.1-1.9,0.3c-0.1,0.8-0.3,1.7-0.4,2.6
		c-0.1,0.9-0.2,1.8-0.3,2.6c-0.1,0.8-0.2,1.6-0.2,2.2c-0.1,0.7-0.1,1.2-0.1,1.5c-0.1,0.6-0.3,1-0.6,1.3c-0.3,0.3-0.8,0.4-1.5,0.4
		c-0.7,0-1.1-0.2-1.4-0.6C118.9,215.4,118.8,214.9,118.8,214.3z M124.7,202c0.2,0,0.4,0.1,0.5,0.1c0.2,0,0.4,0.1,0.6,0.1
		s0.5,0,0.9,0c0.3,0,0.7,0,1.2,0c0.5,0,1,0,1.4-0.1c-0.1-1.2-0.2-2.7-0.5-4.4c-0.2-1.7-0.5-3.5-0.8-5.5c-0.2-1.1-0.3-2.2-0.5-3.2
		c-0.1-1-0.3-1.9-0.3-2.6c0-0.2-0.1-0.3-0.3-0.4c-0.2,0-0.3,0.1-0.3,0.4c-0.4,2.3-0.7,4.5-1,6.5c-0.1,0.9-0.2,1.7-0.4,2.6
		c-0.1,0.9-0.2,1.7-0.4,2.5c-0.1,0.8-0.2,1.5-0.3,2.2c-0.1,0.6-0.2,1.2-0.2,1.5L124.7,202z"/>
	<path class="st2" d="M142.4,178.4c1.5-0.1,3,0,4.4,0.2c1.4,0.2,2.7,0.7,3.8,1.4c1.1,0.7,2,1.7,2.6,3c0.6,1.3,1,3,0.9,5.1
		c0,1.9-0.3,3.5-0.6,4.9c-0.4,1.4-0.9,2.5-1.5,3.5c-0.6,1-1.2,1.7-1.8,2.3c-0.6,0.6-1.2,1.1-1.7,1.4c0.6,1.4,1.2,2.8,1.8,4.2
		c0.6,1.4,1.2,2.8,1.8,4c0.6,1.2,1.1,2.3,1.5,3.3c0.4,0.9,0.7,1.6,0.8,2.1c0.2,0.7,0.3,1.2,0.2,1.5c-0.1,0.3-0.5,0.5-1.1,0.8
		c-1.3,0.5-2.3,0-3-1.6c-0.4-0.9-0.8-1.9-1.3-3.1s-1-2.4-1.6-3.6s-1.1-2.3-1.7-3.3c-0.6-1-1.1-1.9-1.6-2.5c0,0.4-0.1,1-0.1,1.7
		c0,0.7,0,1.5,0,2.4c0,0.9,0,1.8,0,2.8c0,1,0,2,0,2.9v2.5c0,0.8-0.3,1.3-0.6,1.5c-0.4,0.2-0.9,0.3-1.5,0.3c-0.6,0-1.1-0.1-1.3-0.4
		c-0.3-0.3-0.5-0.7-0.5-1.5c0-0.2,0-0.8,0-1.9c0-1,0-2.3,0-3.9s0-3.3,0-5.2c0-1.9,0-3.9,0-5.9c0-2,0-4,0-5.9s0-3.7,0-5.3
		c0-1.6,0-2.9,0-3.9c0-1.1,0-1.7,0-1.9c0-0.8,0.2-1.4,0.7-1.6C141.4,178.5,141.9,178.4,142.4,178.4z M144,183.2c0,1.9,0,3.8,0.1,5.6
		c0,1.5,0,3.2,0,4.8c0,1.7,0,3.1,0,4.2c1.8-0.2,3.3-1,4.6-2.4c1.2-1.4,2-3.4,2.2-5.9c0.1-1.3,0-2.3-0.4-3.2
		c-0.4-0.9-0.9-1.6-1.5-2.1c-0.6-0.5-1.4-0.9-2.2-1.1c-0.8-0.2-1.7-0.3-2.5-0.2C144.1,182.8,144,183,144,183.2z"/>
	<path class="st2" d="M161.1,178.7c1.2-0.1,2.5-0.2,4.1-0.3c1.5-0.1,2.9-0.2,4.2-0.2c1.4,0,2.4,0.1,3,0.3c0.7,0.2,1.2,0.5,1.3,0.9
		c0.1,0.4,0.2,0.7,0.1,1c-0.1,0.3-0.2,0.6-0.4,1.1c-0.2,0.4-0.7,0.7-1.6,0.9c-0.4,0.1-1.1,0.2-2,0.3c-0.9,0.1-1.8,0.1-2.6,0.2
		c-1,0.1-2.1,0.1-3.3,0.2l0.1,12.3c1.9,0,3.5,0,4.8,0c1.3,0,2.1,0.1,2.3,0.1c0.1,0.1,0.3,0.2,0.6,0.2c0.3,0.1,0.5,0.2,0.7,0.4
		c0.2,0.2,0.4,0.4,0.5,0.6c0.1,0.3,0.2,0.6,0.1,1.1c0,0.4-0.2,0.7-0.4,1c-0.2,0.3-0.5,0.5-0.7,0.6c-0.3,0.1-0.5,0.2-0.8,0.3
		c-0.2,0.1-0.4,0.1-0.5,0.1h-3.3c-0.8,0-1.6,0-2.3,0.1c-0.7,0.1-1,0.1-1,0.2v6.1c0,1.8,0,3.8,0.1,6c0.6,0,1.3-0.1,2.1-0.1
		c0.8,0,1.6-0.1,2.5-0.1c0.8,0,1.7,0,2.5,0c0.8,0,1.5,0,2,0.1c0.6,0,1,0.3,1.2,0.6c0.2,0.4,0.3,0.9,0.2,1.5c-0.1,0.6-0.3,1-0.7,1.2
		c-0.4,0.2-0.9,0.3-1.7,0.4c-0.4,0-1.1,0.1-2.1,0.1c-1,0-2,0-3.1,0.1c-1.1,0-2.1,0-3,0.1c-0.9,0-1.5,0-1.8,0c-0.5,0-0.9-0.1-1.2-0.4
		c-0.3-0.2-0.5-0.7-0.6-1.5c0-0.2,0-0.8-0.1-1.9c0-1-0.1-2.3-0.1-3.9c0-1.6-0.1-3.3-0.1-5.2c-0.1-1.9-0.1-3.9-0.1-5.9
		c0-2-0.1-4-0.1-5.9c-0.1-1.9-0.1-3.7-0.1-5.2c0-1.6,0-2.9-0.1-3.9c0-1,0-1.6,0-1.9c0-0.7,0.2-1.2,0.5-1.4
		C160.6,178.9,160.8,178.8,161.1,178.7z"/>
</g>
<line class="st1" x1="65.1" y1="164" x2="171.9" y2="164"/>
</svg>
